<mxfile host="app.diagrams.net" modified="2021-08-12T01:08:07.781Z" agent="5.0 (Macintosh; Intel Mac OS X 10_14_6) AppleWebKit/537.36 (KHTML, like Gecko) Chrome/91.0.4472.114 Safari/537.36" etag="4s5AAQ0X2O1jRlkrvomw" version="14.9.6" type="github">
  <diagram id="QUyE8v5l3m0KQwqVGexu" name="Page-1">
    <mxGraphModel dx="946" dy="458" grid="1" gridSize="10" guides="1" tooltips="1" connect="1" arrows="1" fold="1" page="1" pageScale="1" pageWidth="827" pageHeight="1169" math="0" shadow="0">
      <root>
        <mxCell id="0" />
        <mxCell id="1" parent="0" />
        <mxCell id="ysgGS0lv6cpVvOyqmHyZ-1" value="" style="outlineConnect=0;dashed=0;verticalLabelPosition=bottom;verticalAlign=top;align=center;html=1;shape=mxgraph.aws3.s3;fillColor=#E05243;gradientColor=none;" vertex="1" parent="1">
          <mxGeometry x="500" y="170" width="76.5" height="93" as="geometry" />
        </mxCell>
        <mxCell id="ysgGS0lv6cpVvOyqmHyZ-2" value="" style="outlineConnect=0;dashed=0;verticalLabelPosition=bottom;verticalAlign=top;align=center;html=1;shape=mxgraph.aws3.ec2;fillColor=#F58534;gradientColor=none;" vertex="1" parent="1">
          <mxGeometry x="260" y="150" width="76.5" height="93" as="geometry" />
        </mxCell>
      </root>
    </mxGraphModel>
  </diagram>
</mxfile>
